<?xml version="1.0" standalone="no"?>
<!DOCTYPE svg PUBLIC "-//W3C//DTD SVG 20010904//EN"
 "http://www.w3.org/TR/2001/REC-SVG-20010904/DTD/svg10.dtd">
<svg version="1.0" xmlns="http://www.w3.org/2000/svg"
 width="154.000000pt" height="154.000000pt" viewBox="0 0 154.000000 154.000000"
 preserveAspectRatio="xMidYMid meet">
<metadata>
Created by potrace 1.11, written by Peter Selinger 2001-2013
</metadata>
<g transform="translate(0.000000,154.000000) scale(0.100000,-0.100000)"
fill="#000000" stroke="none">
<path d="M476 1513 c-8 -21 21 -63 55 -80 13 -6 44 -14 69 -18 58 -9 77 -19
95 -55 19 -37 19 -58 -1 -95 -69 -128 -81 -170 -62 -223 18 -51 17 -71 -3 -77
-42 -14 -107 -11 -179 7 -99 25 -161 24 -214 -1 -80 -39 -135 -112 -151 -201
-11 -62 -14 -403 -4 -455 5 -27 11 -61 14 -75 11 -61 49 -142 80 -169 44 -39
90 -46 156 -24 50 17 58 24 103 93 57 87 87 116 156 154 46 25 148 60 210 72
14 3 57 11 95 19 67 13 173 13 218 -1 12 -3 57 -27 101 -52 63 -36 88 -45 126
-45 54 0 102 23 134 66 30 41 28 164 -4 267 -27 85 -136 305 -199 402 -65 98
-152 145 -251 136 -61 -6 -103 -28 -179 -93 -35 -30 -83 -61 -107 -69 -42 -14
-42 -14 -50 12 -17 62 -12 124 14 171 48 86 52 96 52 136 0 38 -29 101 -54
118 -6 4 -29 12 -51 17 -106 27 -116 31 -125 56 -11 28 -35 32 -44 7z"/>
</g>
</svg>
